<?xml version="1.0" standalone="no"?><svg xmlns="http://www.w3.org/2000/svg" viewBox="0 0 1440 320"><path fill="#00539CFF" fill-opacity="1" d="M0,96L20,85.3C40,75,80,53,120,69.3C160,85,200,139,240,149.3C280,160,320,128,360,138.7C400,149,440,203,480,208C520,213,560,171,600,149.3C640,128,680,128,720,133.3C760,139,800,149,840,128C880,107,920,53,960,26.7C1000,0,1040,0,1080,37.3C1120,75,1160,149,1200,176C1240,203,1280,181,1320,149.3C1360,117,1400,75,1420,53.3L1440,32L1440,320L1420,320C1400,320,1360,320,1320,320C1280,320,1240,320,1200,320C1160,320,1120,320,1080,320C1040,320,1000,320,960,320C920,320,880,320,840,320C800,320,760,320,720,320C680,320,640,320,600,320C560,320,520,320,480,320C440,320,400,320,360,320C320,320,280,320,240,320C200,320,160,320,120,320C80,320,40,320,20,320L0,320Z"></path></svg>